<mxfile host="app.diagrams.net" modified="2022-05-26T08:37:36.124Z" agent="5.0 (Macintosh; Intel Mac OS X 10_15_7) AppleWebKit/537.36 (KHTML, like Gecko) Chrome/102.0.5005.61 Safari/537.36" etag="eFbVB4IoA75ZtDD3SZtD" version="18.0.6" type="github">
  <diagram id="O932ZGsSH7Phrbbw8Xm0" name="Page-1">
    <mxGraphModel dx="751" dy="418" grid="0" gridSize="10" guides="1" tooltips="1" connect="1" arrows="1" fold="1" page="1" pageScale="1" pageWidth="1169" pageHeight="827" math="0" shadow="0">
      <root>
        <mxCell id="0" />
        <mxCell id="1" parent="0" />
        <mxCell id="ntxt8ALt5kxq5_o1S0aT-2" value="business process" style="shape=umlLifeline;perimeter=lifelinePerimeter;whiteSpace=wrap;html=1;container=1;collapsible=0;recursiveResize=0;outlineConnect=0;strokeColor=#060083;fontColor=#060083;" vertex="1" parent="1">
          <mxGeometry x="230" y="310" width="120" height="300" as="geometry" />
        </mxCell>
        <mxCell id="ntxt8ALt5kxq5_o1S0aT-6" value="" style="html=1;verticalAlign=bottom;endArrow=block;rounded=0;entryX=0.034;entryY=0.16;entryDx=0;entryDy=0;entryPerimeter=0;" edge="1" parent="ntxt8ALt5kxq5_o1S0aT-2">
          <mxGeometry width="80" relative="1" as="geometry">
            <mxPoint x="60" y="113" as="sourcePoint" />
            <mxPoint x="215.34000000000015" y="113.95999999999992" as="targetPoint" />
          </mxGeometry>
        </mxCell>
        <mxCell id="ntxt8ALt5kxq5_o1S0aT-7" value="invoke" style="edgeLabel;html=1;align=center;verticalAlign=middle;resizable=0;points=[];" vertex="1" connectable="0" parent="ntxt8ALt5kxq5_o1S0aT-6">
          <mxGeometry x="-0.1855" y="2" relative="1" as="geometry">
            <mxPoint x="17" y="-7" as="offset" />
          </mxGeometry>
        </mxCell>
        <mxCell id="ntxt8ALt5kxq5_o1S0aT-3" value="prometheus util" style="shape=umlLifeline;perimeter=lifelinePerimeter;whiteSpace=wrap;html=1;container=1;collapsible=0;recursiveResize=0;outlineConnect=0;strokeColor=#060083;fontColor=#060083;" vertex="1" parent="1">
          <mxGeometry x="390" y="310" width="120" height="300" as="geometry" />
        </mxCell>
        <mxCell id="ntxt8ALt5kxq5_o1S0aT-5" value="" style="html=1;points=[];perimeter=orthogonalPerimeter;strokeColor=#EC4C2C;" vertex="1" parent="ntxt8ALt5kxq5_o1S0aT-3">
          <mxGeometry x="55" y="104" width="10" height="106" as="geometry" />
        </mxCell>
        <mxCell id="ntxt8ALt5kxq5_o1S0aT-9" value="write" style="html=1;verticalAlign=bottom;endArrow=block;rounded=0;entryX=-0.046;entryY=0.102;entryDx=0;entryDy=0;entryPerimeter=0;" edge="1" parent="ntxt8ALt5kxq5_o1S0aT-3" target="ntxt8ALt5kxq5_o1S0aT-8">
          <mxGeometry width="80" relative="1" as="geometry">
            <mxPoint x="65" y="130" as="sourcePoint" />
            <mxPoint x="145" y="130" as="targetPoint" />
          </mxGeometry>
        </mxCell>
        <mxCell id="ntxt8ALt5kxq5_o1S0aT-4" value="memory" style="shape=umlLifeline;perimeter=lifelinePerimeter;whiteSpace=wrap;html=1;container=1;collapsible=0;recursiveResize=0;outlineConnect=0;strokeColor=#060083;fontColor=#060083;" vertex="1" parent="1">
          <mxGeometry x="540" y="310" width="120" height="300" as="geometry" />
        </mxCell>
        <mxCell id="ntxt8ALt5kxq5_o1S0aT-8" value="" style="html=1;points=[];perimeter=orthogonalPerimeter;strokeColor=#EC4C2C;" vertex="1" parent="ntxt8ALt5kxq5_o1S0aT-4">
          <mxGeometry x="55" y="123.5" width="10" height="67" as="geometry" />
        </mxCell>
        <mxCell id="ntxt8ALt5kxq5_o1S0aT-10" value="return" style="html=1;verticalAlign=bottom;endArrow=block;rounded=0;entryX=1.046;entryY=0.715;entryDx=0;entryDy=0;entryPerimeter=0;exitX=-0.144;exitY=0.845;exitDx=0;exitDy=0;exitPerimeter=0;" edge="1" parent="1" source="ntxt8ALt5kxq5_o1S0aT-8" target="ntxt8ALt5kxq5_o1S0aT-5">
          <mxGeometry width="80" relative="1" as="geometry">
            <mxPoint x="480" y="450" as="sourcePoint" />
            <mxPoint x="560" y="450" as="targetPoint" />
          </mxGeometry>
        </mxCell>
        <mxCell id="ntxt8ALt5kxq5_o1S0aT-11" value="return" style="html=1;verticalAlign=bottom;endArrow=block;rounded=0;exitX=0.1;exitY=0.866;exitDx=0;exitDy=0;exitPerimeter=0;" edge="1" parent="1" source="ntxt8ALt5kxq5_o1S0aT-5" target="ntxt8ALt5kxq5_o1S0aT-2">
          <mxGeometry x="-0.0252" width="80" relative="1" as="geometry">
            <mxPoint x="320" y="480" as="sourcePoint" />
            <mxPoint x="400" y="480" as="targetPoint" />
            <mxPoint as="offset" />
          </mxGeometry>
        </mxCell>
        <mxCell id="ntxt8ALt5kxq5_o1S0aT-12" value=":10000/metrics" style="shape=umlLifeline;perimeter=lifelinePerimeter;whiteSpace=wrap;html=1;container=1;collapsible=0;recursiveResize=0;outlineConnect=0;strokeColor=#060083;fontColor=#060083;" vertex="1" parent="1">
          <mxGeometry x="690" y="310" width="120" height="300" as="geometry" />
        </mxCell>
        <mxCell id="ntxt8ALt5kxq5_o1S0aT-14" value="pull" style="html=1;verticalAlign=bottom;endArrow=block;rounded=0;exitX=0.496;exitY=0.866;exitDx=0;exitDy=0;exitPerimeter=0;" edge="1" parent="1" source="ntxt8ALt5kxq5_o1S0aT-12" target="ntxt8ALt5kxq5_o1S0aT-4">
          <mxGeometry width="80" relative="1" as="geometry">
            <mxPoint x="530" y="510" as="sourcePoint" />
            <mxPoint x="610" y="510" as="targetPoint" />
          </mxGeometry>
        </mxCell>
      </root>
    </mxGraphModel>
  </diagram>
</mxfile>
